<?xml version="1.0" encoding="UTF-8"?>
<svg xmlns="http://www.w3.org/2000/svg" width="1200" height="1600" viewBox="0 0 1200 1600" role="img">
  <defs>
    <linearGradient id="warmGlow" x1="0" y1="0" x2="1" y2="1">
      <stop offset="0%" stop-color="#F5A623" stop-opacity="0.95"/>
      <stop offset="100%" stop-color="#FF6B6B" stop-opacity="0.75"/>
    </linearGradient>
    <linearGradient id="blueGlow" x1="0" y1="0" x2="1" y2="1">
      <stop offset="0%" stop-color="#6C9BCF" stop-opacity="0.95"/>
      <stop offset="100%" stop-color="#0EA5E9" stop-opacity="0.85"/>
    </linearGradient>
    <filter id="softShadow" x="-20%" y="-20%" width="140%" height="140%">
      <feDropShadow dx="0" dy="18" stdDeviation="18" flood-color="#1A1C2E" flood-opacity="0.16"/>
    </filter>
    <pattern id="grid" width="46" height="46" patternUnits="userSpaceOnUse">
      <path d="M46 0H0V46" fill="none" stroke="#E5E0D8" stroke-width="1" opacity="0.45"/>
    </pattern>
    
  </defs>
  <rect width="1200" height="1600" fill="#F7F5F2"/>
  
  <rect width="1200" height="1600" fill="#F7F5F2"/>
  <rect width="1200" height="1600" fill="url(#grid)" opacity="0.34"/>
  <rect x="70" y="70" width="1060" height="1460" rx="42" fill="#FFFFFF" filter="url(#softShadow)"/>
  <rect x="70" y="70" width="1060" height="1460" rx="42" fill="none" stroke="#E5E0D8" stroke-width="2"/>
  <g><rect x="130" y="152" rx="18" width="80" height="40" fill="#F5A623" opacity="0.16"/>
  <text x="148" y="180" font-family="'Inter','Noto Sans SC','PingFang SC','Microsoft YaHei',sans-serif" font-size="18" fill="#F5A623" font-weight="800" >第08章</text></g>
  <text x="130" y="278" font-family="'Inter','Noto Sans SC','PingFang SC','Microsoft YaHei',sans-serif" font-size="58" fill="#1A1C2E" font-weight="900" >生存底线</text>
  <text x="134" y="336" font-family="'Inter','Noto Sans SC','PingFang SC','Microsoft YaHei',sans-serif" font-size="28" fill="#4A4D5E" font-weight="500" >财务、法务、数据和心理的防护盾</text>
  <g transform="translate(110 430)">
    
      <rect x="20" y="20" width="940" height="790" rx="38" fill="#F7F5F2" stroke="#E5E0D8" stroke-width="2"/><rect x="60" y="80" width="860" height="560" rx="28" fill="#F7F5F2" stroke="#E5E0D8" stroke-width="2"/>
      <circle cx="480" cy="360" r="350" fill="none" stroke="#1A1C2E" stroke-width="20" opacity="0.18"/><circle cx="480" cy="360" r="270" fill="none" stroke="#F5A623" stroke-width="20" opacity="0.35"/><circle cx="480" cy="360" r="190" fill="none" stroke="#6C9BCF" stroke-width="20" opacity="0.52"/><circle cx="480" cy="360" r="110" fill="none" stroke="#FF6B6B" stroke-width="20" opacity="0.69"/>
      <path d="M480 165 640 232v122c0 120-58 204-160 254-102-50-160-134-160-254V232Z" fill="#1A1C2E" opacity="0.9"/>
      <text x="480" y="374" font-family="'Inter','Noto Sans SC','PingFang SC','Microsoft YaHei',sans-serif" font-size="58" fill="#F5A623" font-weight="900" text-anchor="middle">OPC</text>
      <g><rect x="422" y="83" width="116" height="42" rx="21" fill="#F5A623" opacity="0.15" stroke="#F5A623" stroke-width="2"/>
  <text x="480" y="111" font-family="'Inter','Noto Sans SC','PingFang SC','Microsoft YaHei',sans-serif" font-size="16" fill="#1A1C2E" font-weight="700" text-anchor="middle">法务</text></g><g><rect x="722" y="338" width="116" height="42" rx="21" fill="#F5A623" opacity="0.15" stroke="#F5A623" stroke-width="2"/>
  <text x="780" y="366" font-family="'Inter','Noto Sans SC','PingFang SC','Microsoft YaHei',sans-serif" font-size="16" fill="#1A1C2E" font-weight="700" text-anchor="middle">财务</text></g><g><rect x="422" y="668" width="116" height="42" rx="21" fill="#F5A623" opacity="0.15" stroke="#F5A623" stroke-width="2"/>
  <text x="480" y="696" font-family="'Inter','Noto Sans SC','PingFang SC','Microsoft YaHei',sans-serif" font-size="16" fill="#1A1C2E" font-weight="700" text-anchor="middle">数据</text></g><g><rect x="120" y="338" width="116" height="42" rx="21" fill="#F5A623" opacity="0.15" stroke="#F5A623" stroke-width="2"/>
  <text x="178" y="366" font-family="'Inter','Noto Sans SC','PingFang SC','Microsoft YaHei',sans-serif" font-size="16" fill="#1A1C2E" font-weight="700" text-anchor="middle">心理</text></g>
  </g>
  <rect x="130" y="1390" width="280" height="8" fill="#F5A623"/>
  <text x="130" y="1460" font-family="'Inter','Noto Sans SC','PingFang SC','Microsoft YaHei',sans-serif" font-size="25" fill="#4A4D5E" font-weight="800" >OPC SURVIVAL HANDBOOK</text>
  
</svg>