<?xml version="1.0" encoding="UTF-8"?>
<svg xmlns="http://www.w3.org/2000/svg" width="1200" height="1600" viewBox="0 0 1200 1600" role="img">
  <defs>
    <linearGradient id="warmGlow" x1="0" y1="0" x2="1" y2="1">
      <stop offset="0%" stop-color="#F5A623" stop-opacity="0.95"/>
      <stop offset="100%" stop-color="#FF6B6B" stop-opacity="0.75"/>
    </linearGradient>
    <linearGradient id="blueGlow" x1="0" y1="0" x2="1" y2="1">
      <stop offset="0%" stop-color="#6C9BCF" stop-opacity="0.95"/>
      <stop offset="100%" stop-color="#0EA5E9" stop-opacity="0.85"/>
    </linearGradient>
    <filter id="softShadow" x="-20%" y="-20%" width="140%" height="140%">
      <feDropShadow dx="0" dy="18" stdDeviation="18" flood-color="#1A1C2E" flood-opacity="0.16"/>
    </filter>
    <pattern id="grid" width="46" height="46" patternUnits="userSpaceOnUse">
      <path d="M46 0H0V46" fill="none" stroke="#E5E0D8" stroke-width="1" opacity="0.45"/>
    </pattern>

  </defs>
  <rect width="1200" height="1600" fill="#F7F5F2"/>

  <rect width="1200" height="1600" fill="#F7F5F2"/>
  <rect width="1200" height="1600" fill="url(#grid)" opacity="0.34"/>
  <rect x="70" y="70" width="1060" height="1460" rx="42" fill="#FFFFFF" filter="url(#softShadow)"/>
  <rect x="70" y="70" width="1060" height="1460" rx="42" fill="none" stroke="#E5E0D8" stroke-width="2"/>
  <g><rect x="130" y="152" rx="18" width="80" height="40" fill="#F5A623" opacity="0.16"/>
  <text x="148" y="180" font-family="'Inter','Noto Sans SC','PingFang SC','Microsoft YaHei',sans-serif" font-size="18" fill="#F5A623" font-weight="800" >第07章</text></g>
  <text x="130" y="278" font-family="'Inter','Noto Sans SC','PingFang SC','Microsoft YaHei',sans-serif" font-size="58" fill="#1A1C2E" font-weight="900" >变现</text>
  <text x="134" y="336" font-family="'Inter','Noto Sans SC','PingFang SC','Microsoft YaHei',sans-serif" font-size="28" fill="#4A4D5E" font-weight="500" >技能、内容、信任长成收入之树</text>
  <g transform="translate(110 430)">

      <rect x="20" y="20" width="940" height="790" rx="38" fill="#F7F5F2" stroke="#E5E0D8" stroke-width="2"/><rect x="60" y="90" width="860" height="540" rx="28" fill="#F7F5F2" stroke="#E5E0D8" stroke-width="2"/>
      <path d="M480 580c-30-150-26-284 18-404" stroke="#1A1C2E" stroke-width="44" stroke-linecap="round"/>
      <path d="M490 360c-120-20-206-82-258-184M502 330c116-32 200-96 252-190M492 430c-100 18-174 72-222 162M508 430c108 20 192 74 252 162" stroke="#1A1C2E" stroke-width="26" stroke-linecap="round"/>
      <circle cx="260" cy="165" r="52" fill="#0EA5E9" opacity="0.88"/><text x="260" y="175" font-family="'Inter','Noto Sans SC','PingFang SC','Microsoft YaHei',sans-serif" font-size="26" fill="#F7F5F2" font-weight="900" text-anchor="middle">订</text><circle cx="745" cy="140" r="52" fill="#F5A623" opacity="0.88"/><text x="745" y="150" font-family="'Inter','Noto Sans SC','PingFang SC','Microsoft YaHei',sans-serif" font-size="26" fill="#F7F5F2" font-weight="900" text-anchor="middle">$</text><circle cx="250" cy="595" r="52" fill="#7C3AED" opacity="0.88"/><text x="250" y="605" font-family="'Inter','Noto Sans SC','PingFang SC','Microsoft YaHei',sans-serif" font-size="26" fill="#F7F5F2" font-weight="900" text-anchor="middle">课</text><circle cx="768" cy="595" r="52" fill="#FF6B6B" opacity="0.88"/><text x="768" y="605" font-family="'Inter','Noto Sans SC','PingFang SC','Microsoft YaHei',sans-serif" font-size="26" fill="#F7F5F2" font-weight="900" text-anchor="middle">SaaS</text><circle cx="480" cy="170" r="72" fill="#16A34A" opacity="0.88"/><text x="480" y="180" font-family="'Inter','Noto Sans SC','PingFang SC','Microsoft YaHei',sans-serif" font-size="26" fill="#F7F5F2" font-weight="900" text-anchor="middle">信任</text>
      <path d="M270 650h420" stroke="#F5A623" stroke-width="22" stroke-linecap="round"/>
  </g>
  <rect x="130" y="1390" width="280" height="8" fill="#F5A623"/>
  <text x="130" y="1460" font-family="'Inter','Noto Sans SC','PingFang SC','Microsoft YaHei',sans-serif" font-size="25" fill="#4A4D5E" font-weight="800" >OPC SURVIVAL HANDBOOK</text>

</svg>
