<?xml version="1.0" encoding="UTF-8"?>
<svg xmlns="http://www.w3.org/2000/svg" width="1200" height="1600" viewBox="0 0 1200 1600" role="img">
  <defs>
    <linearGradient id="warmGlow" x1="0" y1="0" x2="1" y2="1">
      <stop offset="0%" stop-color="#F5A623" stop-opacity="0.95"/>
      <stop offset="100%" stop-color="#FF6B6B" stop-opacity="0.75"/>
    </linearGradient>
    <linearGradient id="blueGlow" x1="0" y1="0" x2="1" y2="1">
      <stop offset="0%" stop-color="#6C9BCF" stop-opacity="0.95"/>
      <stop offset="100%" stop-color="#0EA5E9" stop-opacity="0.85"/>
    </linearGradient>
    <filter id="softShadow" x="-20%" y="-20%" width="140%" height="140%">
      <feDropShadow dx="0" dy="18" stdDeviation="18" flood-color="#1A1C2E" flood-opacity="0.16"/>
    </filter>
    <pattern id="grid" width="46" height="46" patternUnits="userSpaceOnUse">
      <path d="M46 0H0V46" fill="none" stroke="#E5E0D8" stroke-width="1" opacity="0.45"/>
    </pattern>

  </defs>
  <rect width="1200" height="1600" fill="#F7F5F2"/>

  <rect width="1200" height="1600" fill="#F7F5F2"/>
  <rect width="1200" height="1600" fill="url(#grid)" opacity="0.34"/>
  <rect x="70" y="70" width="1060" height="1460" rx="42" fill="#FFFFFF" filter="url(#softShadow)"/>
  <rect x="70" y="70" width="1060" height="1460" rx="42" fill="none" stroke="#E5E0D8" stroke-width="2"/>
  <g><rect x="130" y="152" rx="18" width="80" height="40" fill="#F5A623" opacity="0.16"/>
  <text x="148" y="180" font-family="'Inter','Noto Sans SC','PingFang SC','Microsoft YaHei',sans-serif" font-size="18" fill="#F5A623" font-weight="800" >第09章</text></g>
  <text x="130" y="278" font-family="'Inter','Noto Sans SC','PingFang SC','Microsoft YaHei',sans-serif" font-size="58" fill="#1A1C2E" font-weight="900" >肉身生存</text>
  <text x="134" y="336" font-family="'Inter','Noto Sans SC','PingFang SC','Microsoft YaHei',sans-serif" font-size="28" fill="#4A4D5E" font-weight="500" >生产力来自一个稳定运转的身体</text>
  <g transform="translate(110 430)">

      <rect x="20" y="20" width="940" height="790" rx="38" fill="#F7F5F2" stroke="#E5E0D8" stroke-width="2"/><rect x="60" y="90" width="860" height="540" rx="28" fill="#F7F5F2" stroke="#E5E0D8" stroke-width="2"/>
      <rect x="450" y="190" width="60" height="390" rx="30" fill="#1A1C2E"/>
      <path d="M280 270h400" stroke="#1A1C2E" stroke-width="18" stroke-linecap="round"/>
      <path d="M300 270 220 455h160Z" fill="#6C9BCF" opacity="0.22" stroke="#6C9BCF" stroke-width="6"/>
      <path d="M660 270 580 455h160Z" fill="#F5A623" opacity="0.22" stroke="#F5A623" stroke-width="6"/>
      <text x="300" y="422" font-family="'Inter','Noto Sans SC','PingFang SC','Microsoft YaHei',sans-serif" font-size="30" fill="#1A1C2E" font-weight="800" text-anchor="middle">AI工作</text>
      <text x="660" y="422" font-family="'Inter','Noto Sans SC','PingFang SC','Microsoft YaHei',sans-serif" font-size="30" fill="#1A1C2E" font-weight="800" text-anchor="middle">身体</text>
      <path d="M345 515h270" stroke="#F5A623" stroke-width="20" stroke-linecap="round"/>
      <circle cx="480" cy="270" r="42" fill="#F5A623"/>
  </g>
  <rect x="130" y="1390" width="280" height="8" fill="#F5A623"/>
  <text x="130" y="1460" font-family="'Inter','Noto Sans SC','PingFang SC','Microsoft YaHei',sans-serif" font-size="25" fill="#4A4D5E" font-weight="800" >OPC SURVIVAL HANDBOOK</text>

</svg>
