<?xml version="1.0" encoding="UTF-8"?>
<svg xmlns="http://www.w3.org/2000/svg" width="1200" height="1600" viewBox="0 0 1200 1600" role="img">
  <defs>
    <linearGradient id="warmGlow" x1="0" y1="0" x2="1" y2="1">
      <stop offset="0%" stop-color="#F5A623" stop-opacity="0.95"/>
      <stop offset="100%" stop-color="#FF6B6B" stop-opacity="0.75"/>
    </linearGradient>
    <linearGradient id="blueGlow" x1="0" y1="0" x2="1" y2="1">
      <stop offset="0%" stop-color="#6C9BCF" stop-opacity="0.95"/>
      <stop offset="100%" stop-color="#0EA5E9" stop-opacity="0.85"/>
    </linearGradient>
    <filter id="softShadow" x="-20%" y="-20%" width="140%" height="140%">
      <feDropShadow dx="0" dy="18" stdDeviation="18" flood-color="#1A1C2E" flood-opacity="0.16"/>
    </filter>
    <pattern id="grid" width="46" height="46" patternUnits="userSpaceOnUse">
      <path d="M46 0H0V46" fill="none" stroke="#E5E0D8" stroke-width="1" opacity="0.45"/>
    </pattern>
    
  </defs>
  <rect width="1200" height="1600" fill="#F7F5F2"/>
  
  <rect width="1200" height="1600" fill="#F7F5F2"/>
  <rect width="1200" height="1600" fill="url(#grid)" opacity="0.34"/>
  <rect x="70" y="70" width="1060" height="1460" rx="42" fill="#FFFFFF" filter="url(#softShadow)"/>
  <rect x="70" y="70" width="1060" height="1460" rx="42" fill="none" stroke="#E5E0D8" stroke-width="2"/>
  <g><rect x="130" y="152" rx="18" width="80" height="40" fill="#F5A623" opacity="0.16"/>
  <text x="148" y="180" font-family="'Inter','Noto Sans SC','PingFang SC','Microsoft YaHei',sans-serif" font-size="18" fill="#F5A623" font-weight="800" >第05章</text></g>
  <text x="130" y="278" font-family="'Inter','Noto Sans SC','PingFang SC','Microsoft YaHei',sans-serif" font-size="58" fill="#1A1C2E" font-weight="900" >内容工厂</text>
  <text x="134" y="336" font-family="'Inter','Noto Sans SC','PingFang SC','Microsoft YaHei',sans-serif" font-size="28" fill="#4A4D5E" font-weight="500" >从选题到分发的规模化生产线</text>
  <g transform="translate(110 430)">
    
      <rect x="20" y="20" width="940" height="790" rx="38" fill="#F7F5F2" stroke="#E5E0D8" stroke-width="2"/><rect x="60" y="90" width="860" height="540" rx="28" fill="#F7F5F2" stroke="#E5E0D8" stroke-width="2"/>
      <path d="M150 490h640" stroke="#1A1C2E" stroke-width="42" stroke-linecap="round"/>
      <rect x="135" y="235" width="150" height="160" rx="22" fill="#0EA5E9" opacity="0.18" stroke="#0EA5E9" stroke-width="4"/>
      <text x="210" y="325" font-family="'Inter','Noto Sans SC','PingFang SC','Microsoft YaHei',sans-serif" font-size="28" fill="#1A1C2E" font-weight="800" text-anchor="middle">选题</text>
      <circle cx="210" cy="490" r="34" fill="#0EA5E9"/><rect x="325" y="235" width="150" height="160" rx="22" fill="#F5A623" opacity="0.18" stroke="#F5A623" stroke-width="4"/>
      <text x="400" y="325" font-family="'Inter','Noto Sans SC','PingFang SC','Microsoft YaHei',sans-serif" font-size="28" fill="#1A1C2E" font-weight="800" text-anchor="middle">初稿</text>
      <circle cx="400" cy="490" r="34" fill="#F5A623"/><rect x="515" y="235" width="150" height="160" rx="22" fill="#7C3AED" opacity="0.18" stroke="#7C3AED" stroke-width="4"/>
      <text x="590" y="325" font-family="'Inter','Noto Sans SC','PingFang SC','Microsoft YaHei',sans-serif" font-size="28" fill="#1A1C2E" font-weight="800" text-anchor="middle">润色</text>
      <circle cx="590" cy="490" r="34" fill="#7C3AED"/><rect x="705" y="235" width="150" height="160" rx="22" fill="#FF6B6B" opacity="0.18" stroke="#FF6B6B" stroke-width="4"/>
      <text x="780" y="325" font-family="'Inter','Noto Sans SC','PingFang SC','Microsoft YaHei',sans-serif" font-size="28" fill="#1A1C2E" font-weight="800" text-anchor="middle">分发</text>
      <circle cx="780" cy="490" r="34" fill="#FF6B6B"/>
      <path d="M310 490h60M500 490h60M690 490h60" stroke="#F7F5F2" stroke-width="10" stroke-linecap="round"/>
  </g>
  <rect x="130" y="1390" width="280" height="8" fill="#F5A623"/>
  <text x="130" y="1460" font-family="'Inter','Noto Sans SC','PingFang SC','Microsoft YaHei',sans-serif" font-size="25" fill="#4A4D5E" font-weight="800" >OPC SURVIVAL HANDBOOK</text>
  
</svg>