<?xml version="1.0" encoding="UTF-8"?>
<svg xmlns="http://www.w3.org/2000/svg" width="1200" height="1600" viewBox="0 0 1200 1600" role="img">
  <defs>
    <linearGradient id="warmGlow" x1="0" y1="0" x2="1" y2="1">
      <stop offset="0%" stop-color="#F5A623" stop-opacity="0.95"/>
      <stop offset="100%" stop-color="#FF6B6B" stop-opacity="0.75"/>
    </linearGradient>
    <linearGradient id="blueGlow" x1="0" y1="0" x2="1" y2="1">
      <stop offset="0%" stop-color="#6C9BCF" stop-opacity="0.95"/>
      <stop offset="100%" stop-color="#0EA5E9" stop-opacity="0.85"/>
    </linearGradient>
    <filter id="softShadow" x="-20%" y="-20%" width="140%" height="140%">
      <feDropShadow dx="0" dy="18" stdDeviation="18" flood-color="#1A1C2E" flood-opacity="0.16"/>
    </filter>
    <pattern id="grid" width="46" height="46" patternUnits="userSpaceOnUse">
      <path d="M46 0H0V46" fill="none" stroke="#E5E0D8" stroke-width="1" opacity="0.45"/>
    </pattern>
    
  </defs>
  <rect width="1200" height="1600" fill="#F7F5F2"/>
  
  <rect width="1200" height="1600" fill="#F7F5F2"/>
  <rect width="1200" height="1600" fill="url(#grid)" opacity="0.34"/>
  <rect x="70" y="70" width="1060" height="1460" rx="42" fill="#FFFFFF" filter="url(#softShadow)"/>
  <rect x="70" y="70" width="1060" height="1460" rx="42" fill="none" stroke="#E5E0D8" stroke-width="2"/>
  <g><rect x="130" y="152" rx="18" width="80" height="40" fill="#F5A623" opacity="0.16"/>
  <text x="148" y="180" font-family="'Inter','Noto Sans SC','PingFang SC','Microsoft YaHei',sans-serif" font-size="18" fill="#F5A623" font-weight="800" >第04章</text></g>
  <text x="130" y="278" font-family="'Inter','Noto Sans SC','PingFang SC','Microsoft YaHei',sans-serif" font-size="58" fill="#1A1C2E" font-weight="900" >AI工具箱</text>
  <text x="134" y="336" font-family="'Inter','Noto Sans SC','PingFang SC','Microsoft YaHei',sans-serif" font-size="28" fill="#4A4D5E" font-weight="500" >把写作、设计、代码、自动化变成虚拟团队</text>
  <g transform="translate(110 430)">
    
      <rect x="20" y="20" width="940" height="790" rx="38" fill="#F7F5F2" stroke="#E5E0D8" stroke-width="2"/><rect x="60" y="80" width="860" height="560" rx="28" fill="#1A1C2E"/>
      <rect x="120" y="140" width="150" height="210" rx="18" fill="#F5A623" opacity="0.16" stroke="#F5A623" stroke-width="4"/>
      <path d="M145 200h95M145 240h70M145 280h105" stroke="#F5A623" stroke-width="8" stroke-linecap="round"/><rect x="305" y="210" width="150" height="210" rx="18" fill="#6C9BCF" opacity="0.16" stroke="#6C9BCF" stroke-width="4"/>
      <path d="M145 270h95M145 310h70M145 350h105" stroke="#6C9BCF" stroke-width="8" stroke-linecap="round"/><rect x="490" y="140" width="150" height="210" rx="18" fill="#F5A623" opacity="0.16" stroke="#F5A623" stroke-width="4"/>
      <path d="M145 200h95M145 240h70M145 280h105" stroke="#F5A623" stroke-width="8" stroke-linecap="round"/><rect x="675" y="210" width="150" height="210" rx="18" fill="#6C9BCF" opacity="0.16" stroke="#6C9BCF" stroke-width="4"/>
      <path d="M145 270h95M145 310h70M145 350h105" stroke="#6C9BCF" stroke-width="8" stroke-linecap="round"/>
      <circle cx="478" cy="480" r="96" fill="#F7F5F2" opacity="0.95"/>
      <text x="478" y="504" font-family="'Inter','Noto Sans SC','PingFang SC','Microsoft YaHei',sans-serif" font-size="42" fill="#1A1C2E" font-weight="900" text-anchor="middle">OPC</text>
      <path d="M478 380V270M388 438 240 300M568 438 720 300" stroke="#F5A623" stroke-width="8" stroke-dasharray="16 14"/>
  </g>
  <rect x="130" y="1390" width="280" height="8" fill="#F5A623"/>
  <text x="130" y="1460" font-family="'Inter','Noto Sans SC','PingFang SC','Microsoft YaHei',sans-serif" font-size="25" fill="#4A4D5E" font-weight="800" >OPC SURVIVAL HANDBOOK</text>
  
</svg>